<svg width="1441" height="82" xmlns="http://www.w3.org/2000/svg"><g fill="none"><path d="M0 52h1441V2.062c-332.273 0-561.783 44.438-890.422 44.438S182.022-7.612 0 2.062V52z" fill="#F9F9F9"/><path d="M26.603 34.535c9.16.19 14.917.064 39.595-.693 46.974-1.44 75.11-1.05 108.833 2.978 16.646 1.987 34.454 4.735 58.134 8.845 8.844 1.534 52.329 9.319 65.088 11.524C391.035 73.23 464.548 81 553.845 81c74.902 0 147.927-2.57 226.065-7.56 59.792-3.818 108.886-7.888 207.391-16.76l7.171-.645c103.257-9.301 150.777-13.26 211.547-17.168 51.614-3.32 101.06-5.602 150.304-6.805H1438C1106.418 32.062 881.799 82 553.845 82 379.228 82 266.71 48.775 174.912 37.812 94.302 28.187 25.636 41.385 0 32.063h3.355c5.62 1.498 13.163 2.264 23.248 2.473zM3.355 32.062c5.62 1.498 13.163 2.264 23.248 2.473 9.16.19 14.917.064 39.595-.693 46.974-1.44 75.11-1.05 108.833 2.978 16.646 1.987 34.454 4.735 58.134 8.845 8.844 1.534 52.329 9.319 65.088 11.524C391.035 73.23 464.548 81 553.845 81c74.902 0 147.927-2.57 226.065-7.56 59.792-3.818 108.886-7.888 207.391-16.76l7.171-.645c103.257-9.301 150.777-13.26 211.547-17.168 51.614-3.32 101.06-5.602 150.304-6.805H1438C1106.418 32.062 881.799 82 553.845 82 379.228 82 266.71 48.775 174.912 37.812 94.302 28.187 25.636 41.385 0 32.063h3.355z" fill="#EFEFEF"/><path d="M1435.58 22.018c-23.01 4.05-40.661 6.07-55.213 6.536-11.83.379-19.077-.08-33.747-1.686l-.021-.002c-11.529-1.262-17.036-1.703-25.248-1.792-74.38-.806-127.874 1.346-167.95 6.183-30.894 3.728-49.95 8.1-78.32 16.741l-2.882.88-2.873.88c-25.574 7.818-39.945 11.379-62.942 14.7C976.436 68.781 938.24 71 886 71c-13.054 0-26.266-.11-39.647-.33-111.351-1.821-217.699-9.875-381.342-26.572-13.829-1.41-78.725-8.11-96.143-9.88-35.801-3.635-63.763-6.336-89.73-8.62-63.739-5.605-113.025-8.411-154.692-8.411-13.218 0-23.579 1.082-39.26 3.598-14.944 2.398-14.671 2.357-19.77 2.897-20.917 2.22-38.418-.9-63.146-13.149L0 10.515c55.532 28.101 71.975 7.672 124.446 7.672C304.818 18.187 598.126 72 886 72c244.62 0 125.614-49.281 435.34-45.926 34.876.378 42.798 10.037 119.66-4.012l-5.42-.044zm0 0c-23.01 4.05-40.661 6.07-55.213 6.536-11.83.379-19.077-.08-33.747-1.686l-.021-.002c-11.529-1.262-17.036-1.703-25.248-1.792-74.38-.806-127.874 1.346-167.95 6.183-30.894 3.728-49.95 8.1-78.32 16.741l-2.882.88-2.873.88c-25.574 7.818-39.945 11.379-62.942 14.7C976.436 68.781 938.24 71 886 71c-13.054 0-26.266-.11-39.647-.33-111.351-1.821-217.699-9.875-381.342-26.572-13.829-1.41-78.725-8.11-96.143-9.88-35.801-3.635-63.763-6.336-89.73-8.62-63.739-5.605-113.025-8.411-154.692-8.411-13.218 0-23.579 1.082-39.26 3.598-14.944 2.398-14.671 2.357-19.77 2.897-20.917 2.22-38.418-.9-63.146-13.149L0 10.515c55.532 28.101 71.975 7.672 124.446 7.672C304.818 18.187 598.126 72 886 72c244.62 0 125.614-49.281 435.34-45.926 34.876.378 42.798 10.037 119.66-4.012l-5.42-.044z" fill="#EDF7FC"/></g></svg>